<svg version="1" xmlns="http://www.w3.org/2000/svg" width="346.667" height="346.667" viewBox="0 0 260.000000 260.000000"><path d="M39.9 31.7c1 2.6 7.3 18.4 14 35.1C60.6 83.4 66 97.2 66 97.5c0 .3-1.7.5-3.7.5-6.8 0-17.6 2.9-25.1 6.6C23.9 111.1 14 123 8.8 138.5c-2 6-2.3 8.9-2.2 20.5.1 14.7 1.3 20.8 6.5 31.3 9.9 20.1 29.3 31.5 53.8 31.5 14.8 0 28.4-3.5 38.5-9.9 3.4-2.1 5.1-2.7 5.6-1.9.4.7 3.8 9 7.6 18.6l6.9 17.4h46l7.5-18.6c4.1-10.2 8.5-21.1 9.6-24.2 2.5-6.6 26.9-67.7 28.3-70.7.5-1.1 10.2-25.2 21.5-53.5l20.5-51.5-22.1-.3c-21.3-.2-22.3-.2-26.7 2-7.3 3.7-4.9-1.9-30.1 68.8-5.6 15.7-12.2 34.1-14.7 41-7.4 20.5-11.4 33-13.8 42.5l-2.2 9-2.7-9c-3.3-10.9-5.4-17.1-10.7-31.8-2.2-6.1-5.1-14.1-6.4-17.7-1.3-3.6-5.3-14.8-9-25s-7.7-21.4-9-25c-1.3-3.6-5.1-14.2-8.4-23.5-7.7-21.4-10.3-26.6-14.4-29-2.9-1.8-5.5-2-27-2.3L38 26.9l1.9 4.8zm34 92.6c3.1 1.1 3.8 2.1 7.3 10.6 2.1 5.2 3.8 9.6 3.8 9.8 0 .2-9.7.3-21.5.3H42l.6-2.8c2.4-9.9 8-16.4 15.7-18.2 4.8-1.2 11.8-1 15.6.3zm23.4 50.9c2 5 3.6 9.2 3.4 9.3-.1.1-4.9 2.4-10.7 5.1-9.8 4.5-11 4.8-18.5 4.8-9.1 0-10.7-.3-15.3-2.7-6.9-3.7-11.7-11.4-13.6-22l-.7-3.7h51.7l3.7 9.2z"/></svg>